<svg width="21" height="21" viewBox="0 0 31 31" fill="none" xmlns="http://www.w3.org/2000/svg">
<path d="M29.8033 26.4213L23.962 20.5801C23.6984 20.3164 23.341 20.17 22.966 20.17H22.0111C23.6281 18.1018 24.5889 15.5005 24.5889 12.6707C24.5889 5.93892 19.1344 0.484375 12.4026 0.484375C5.67085 0.484375 0.216309 5.93892 0.216309 12.6707C0.216309 19.4025 5.67085 24.857 12.4026 24.857C15.2324 24.857 17.8337 23.8962 19.9019 22.2791V23.2341C19.9019 23.6091 20.0484 23.9665 20.312 24.2301L26.1532 30.0713C26.704 30.6221 27.5945 30.6221 28.1394 30.0713L29.7974 28.4133C30.3481 27.8626 30.3481 26.972 29.8033 26.4213ZM12.4026 20.17C8.26045 20.17 4.90335 16.8187 4.90335 12.6707C4.90335 8.52851 8.25459 5.17142 12.4026 5.17142C16.5448 5.17142 19.9019 8.52265 19.9019 12.6707C19.9019 16.8129 16.5507 20.17 12.4026 20.17Z" fill="#ECEFF4"/>
</svg>
